<svg xmlns="http://www.w3.org/2000/svg" fill="none" viewBox="0 0 3296 440"><path fill="#000" d="M598 362V70h193v51H660v70h118v50H660v121zM831 362V143h61v219zm31-247q-14 0-23-9-10-9-10-22 0-12 10-21 9-10 23-10 14 1 23 10t10 21q-1 13-10 22t-23 9M941 362V143h58v38h3q6-20 20-30 14-11 32-11l19 2v54l-12-2-13-1q-13 0-24 6a43 43 0 0 0-23 39v124zM1287 206l-56 3q-1-7-6-13-4-6-12-9-7-4-19-4-14 0-23 6-10 6-10 16 0 8 6 13 7 6 22 9l39 8q32 6 48 21 16 14 16 38 0 21-13 38-12 16-35 25-21 9-50 9-43 0-69-18a70 70 0 0 1-30-49l60-4q2 14 13 21 11 6 26 6 17 0 26-6 10-6 10-16 0-8-7-13-7-6-21-9l-38-7q-31-6-48-22a55 55 0 0 1-15-41q0-21 11-36 12-15 33-23 20-9 48-9 42 0 66 18 24 16 28 48M1446 143v46h-132v-46zm-102-52h61v204l2 13q3 4 8 6l10 2 16-2 9 45-33 6q-21 1-38-6-17-6-26-21-9-14-9-35zM1597 261h52l27 33 25 31 49 61h-57l-34-41-17-25zm158-45q0 48-18 81-18 35-49 51-31 18-70 18t-70-18-48-51-18-81 18-81q17-33 48-51t70-18q39 0 70 18 30 18 49 51 18 33 18 81m-63 0q0-31-9-52t-26-32-39-11q-22-1-39 11-17 11-26 32t-9 52 9 52 26 32q17 12 39 11 23 1 39-11 17-11 26-32t9-52M1939 269V143h61v219h-58v-40h-2q-8 19-25 31-16 12-42 12-21-1-38-10-17-10-26-29-10-18-10-44V143h61v129q0 20 10 30 10 12 28 12 11 0 20-5 10-6 16-16 6-9 5-24M2111 366q-21 0-37-7-17-7-26-22-10-15-10-36 1-19 7-31 7-12 18-20 12-8 26-11 16-4 31-6l31-3q12-2 17-6 6-4 5-10v-1q1-13-8-21-9-7-24-7-17 0-26 7-10 8-13 18l-56-5a76 76 0 0 1 49-57q20-8 46-8 18 0 35 5 17 3 30 13a64 64 0 0 1 28 56v148h-57v-30h-2a62 62 0 0 1-35 30q-13 4-29 4m17-42q14 0 24-5 10-6 16-15t6-20v-23l-8 3-23 5-30 6q-7 4-12 10-5 5-5 14 0 12 9 19 9 6 23 6M2362 366q-25-1-45-13-20-14-32-38-12-26-12-62 0-37 12-63 12-24 32-37a82 82 0 0 1 75-6q12 6 20 15l12 18h2V70h60v292h-60v-35h-2l-12 18q-8 9-20 15-13 6-30 6m19-49q15 0 25-8t15-22 6-34-6-34q-4-15-15-23-10-7-25-7t-25 8-16 22q-5 15-5 34t5 33 16 23q10 9 25 8M2536 362V143h59v38h2q6-20 20-30 14-11 33-11l19 2v54l-12-2-14-1q-13 0-24 6a43 43 0 0 0-22 39v124zM2756 366q-21 0-37-7-17-7-26-22t-9-36q0-19 6-31 8-12 18-20 12-8 27-11 14-4 31-6l30-3q12-2 17-6 6-4 6-10v-1q0-13-9-21-8-7-24-7t-26 7-13 18l-56-5a76 76 0 0 1 49-57q21-8 46-8 19 0 35 5 17 3 30 13a64 64 0 0 1 28 56v148h-57v-30h-2a62 62 0 0 1-35 30q-13 4-29 4m17-42q14 0 24-5 10-6 16-15t6-20v-23l-8 3-23 5-30 6q-7 4-12 10-5 5-5 14 0 12 9 19 10 6 23 6M2987 235v127h-61V143h58v39h3q7-19 24-30 17-12 41-12t40 10q17 10 27 29 9 18 9 44v139h-61V233q0-19-10-31-10-11-29-11-12-1-21 5-9 5-15 15-5 11-5 24M3292 143v46h-132v-46zm-102-52h61v204l2 13q3 4 8 6l10 2 15-2 10 45-33 6q-21 1-38-6-17-6-26-21-9-14-9-35zM191 0h61v440h-61z"/><path fill="#000" d="M441 189v62H0v-62z"/><path fill="#000" d="m364 33 43 44-156 156-43-44z"/></svg>