<svg width="332" height="97" viewBox="0 0 332 97" fill="none" xmlns="http://www.w3.org/2000/svg"><path d="M0 4.23465V95.412H20.3092V64.4461H36.7377C57.4351 64.4461 66.7489 49.6248 66.7489 34.4065C66.7489 19.3206 57.4351 4.23465 36.7377 4.23465H0ZM20.3092 46.3165V22.3643H35.9616C43.4644 22.3643 46.3103 28.5839 46.3103 34.4065C46.3103 40.2292 43.4644 46.3165 35.8322 46.3165H20.3092ZM119.741 41.0232C115.602 35.3329 108.228 32.0246 100.855 32.0246C83.6503 32.0246 71.7494 45.1255 71.7494 64.5784C71.7494 83.899 83.6503 97 100.596 97C108.228 97 115.602 93.427 119.741 87.6044V95.412H138.886V33.6125H119.741V41.0232ZM105.253 78.8704C96.9742 78.8704 91.2825 72.1214 91.2825 64.5784C91.2825 56.6385 96.9742 50.1542 105.124 50.1542C112.885 50.1542 119.094 56.5061 119.094 64.5784C119.094 72.1214 113.015 78.8704 105.253 78.8704ZM192.724 32.0246C186.514 32.0246 178.494 34.5389 174.096 40.3615V0H154.951V95.412H174.096V88.5307C178.494 94.4857 186.514 97 192.724 97C207.859 97 222.088 84.4284 222.088 64.4461C222.088 44.4638 207.859 32.0246 192.724 32.0246ZM188.713 78.8704C181.34 78.8704 174.743 72.3861 174.743 64.4461C174.743 56.5061 181.469 50.1542 188.713 50.1542C196.216 50.1542 202.684 56.6385 202.684 64.4461C202.684 72.2537 196.216 78.8704 188.713 78.8704ZM244.236 24.3493C250.704 24.3493 255.878 19.1883 255.878 12.9686C255.878 6.48431 250.704 1.58799 244.236 1.58799C237.768 1.58799 232.335 6.48431 232.335 12.9686C232.335 19.1883 237.768 24.3493 244.236 24.3493ZM253.808 95.412V33.6125H234.663V95.412H253.808ZM299.143 97C316.348 97 332 84.0314 332 64.5784C332 44.9932 316.348 32.0246 299.143 32.0246C281.938 32.0246 266.415 44.9932 266.415 64.5784C266.415 84.0314 281.938 97 299.143 97ZM299.143 78.8704C291.77 78.8704 285.819 73.0478 285.819 64.5784C285.819 56.1091 291.77 50.1542 299.143 50.1542C306.516 50.1542 312.467 56.1091 312.467 64.5784C312.467 73.0478 306.516 78.8704 299.143 78.8704Z" fill="#FF6B6B"/></svg>
